<svg width="19" height="18" viewBox="0 0 19 18" fill="none" xmlns="http://www.w3.org/2000/svg">
<g id="Insta">
<path id="Vector" d="M13.1961 1.90193C14.1802 1.90476 15.1232 2.28248 15.8191 2.95259C16.515 3.6227 16.9072 4.53075 16.9102 5.47843V12.6307C16.9072 13.5783 16.515 14.4864 15.8191 15.1565C15.1232 15.8266 14.1802 16.2043 13.1961 16.2072H5.76878C4.78465 16.2043 3.84168 15.8266 3.14579 15.1565C2.44991 14.4864 2.05766 13.5783 2.05472 12.6307V5.47843C2.05766 4.53075 2.44991 3.6227 3.14579 2.95259C3.84168 2.28248 4.78465 1.90476 5.76878 1.90193H13.1961ZM13.1961 0.471558H5.76878C2.90903 0.471558 0.569336 2.72459 0.569336 5.47843V12.6307C0.569336 15.3845 2.90903 17.6375 5.76878 17.6375H13.1961C16.0559 17.6375 18.3955 15.3845 18.3955 12.6307V5.47843C18.3955 2.72459 16.0559 0.471558 13.1961 0.471558Z" fill="#2E4049"/>
<path id="Vector_2" d="M14.3107 5.47876C14.0904 5.47876 13.875 5.41583 13.6917 5.29794C13.5085 5.18006 13.3657 5.0125 13.2814 4.81645C13.1971 4.62041 13.175 4.40469 13.218 4.19657C13.261 3.98846 13.3671 3.79729 13.5229 3.64725C13.6787 3.4972 13.8772 3.39502 14.0934 3.35362C14.3095 3.31223 14.5335 3.33347 14.7371 3.41468C14.9407 3.49588 15.1147 3.63339 15.2371 3.80983C15.3595 3.98626 15.4249 4.19369 15.4249 4.40588C15.4252 4.54686 15.3966 4.68651 15.3407 4.81681C15.2848 4.94712 15.2028 5.06551 15.0992 5.16519C14.9957 5.26488 14.8728 5.3439 14.7375 5.39771C14.6021 5.45152 14.4571 5.47906 14.3107 5.47876ZM9.48292 6.19375C10.0706 6.19375 10.645 6.36155 11.1336 6.67594C11.6222 6.99032 12.003 7.43717 12.2279 7.95997C12.4528 8.48277 12.5116 9.05805 12.397 9.61305C12.2824 10.1681 11.9994 10.6779 11.5839 11.078C11.1683 11.4781 10.6389 11.7506 10.0626 11.861C9.48622 11.9714 8.88881 11.9148 8.3459 11.6982C7.80299 11.4817 7.33896 11.1149 7.01249 10.6444C6.68601 10.1739 6.51175 9.62075 6.51175 9.05488C6.5126 8.29631 6.8259 7.56904 7.38292 7.03265C7.93994 6.49626 8.69518 6.19456 9.48292 6.19375ZM9.48292 4.76338C8.6015 4.76338 7.73987 5.01507 7.00699 5.48663C6.27412 5.95818 5.70291 6.62842 5.3656 7.41259C5.0283 8.19676 4.94004 9.05964 5.112 9.89211C5.28396 10.7246 5.7084 11.4892 6.33166 12.0894C6.95492 12.6896 7.749 13.0983 8.61349 13.2639C9.47798 13.4295 10.374 13.3445 11.1884 13.0197C12.0027 12.6949 12.6987 12.1448 13.1884 11.4391C13.6781 10.7334 13.9395 9.90365 13.9395 9.05488C13.9395 7.9167 13.4699 6.82514 12.6342 6.02033C11.7984 5.21552 10.6649 4.76338 9.48292 4.76338Z" fill="#2E4049"/>
</g>
</svg>
