<svg width="20" height="16" viewBox="0 0 20 16" fill="none" xmlns="http://www.w3.org/2000/svg">
<g id="Twiter">
<path id="Vector" d="M19.3212 2.22528C18.6047 2.53658 17.8467 2.74167 17.071 2.83407C17.8862 2.35674 18.4992 1.5984 18.7952 0.701294C18.0245 1.15196 17.1827 1.46817 16.3059 1.63637C15.9366 1.24942 15.4926 0.941592 15.0007 0.731593C14.5088 0.521594 13.9794 0.413813 13.4445 0.414802C11.2791 0.414802 9.52672 2.14172 9.52672 4.27051C9.52519 4.56662 9.55912 4.86185 9.62779 5.14989C8.07504 5.0771 6.55457 4.68099 5.16367 3.98691C3.77277 3.29283 2.54207 2.31606 1.55029 1.1191C1.20235 1.70566 1.01834 2.37491 1.01749 3.0569C1.01749 4.39387 1.71502 5.57565 2.76828 6.26801C2.14426 6.2532 1.53302 6.08803 0.986456 5.78654V5.83429C0.986456 7.70445 2.33934 9.26026 4.12992 9.6144C3.7932 9.70416 3.44622 9.74964 3.09775 9.74969C2.85048 9.75012 2.60377 9.72613 2.36122 9.67806C2.859 11.21 4.30778 12.3241 6.02395 12.356C4.62944 13.4307 2.91734 14.0116 1.15676 14.0073C0.844251 14.0068 0.532033 13.9882 0.22168 13.9516C2.01273 15.0953 4.09468 15.7002 6.21972 15.6944C13.4362 15.6944 17.3786 9.81733 17.3786 4.72015C17.3786 4.55303 17.3742 4.38591 17.3663 4.22277C18.1315 3.67845 18.7935 3.00203 19.3212 2.22528Z" fill="#2E4049"/>
</g>
</svg>
